<svg width="225" height="60" viewBox="0 0 225 60" fill="none" xmlns="http://www.w3.org/2000/svg">
<path d="M80.42 24.2C79.18 24.2 78.14 24.02 77.3 23.66C76.4733 23.2867 75.84 22.8067 75.4 22.22C74.9733 21.62 74.7467 20.9933 74.72 20.34C74.72 20.22 74.76 20.12 74.84 20.04C74.92 19.96 75.02 19.92 75.14 19.92H76.92C77.0933 19.92 77.22 19.96 77.3 20.04C77.3933 20.1067 77.4733 20.1933 77.54 20.3C77.62 20.5533 77.7733 20.8067 78 21.06C78.2267 21.3 78.5333 21.5 78.92 21.66C79.32 21.82 79.82 21.9 80.42 21.9C81.38 21.9 82.0933 21.74 82.56 21.42C83.04 21.1 83.28 20.6667 83.28 20.12C83.28 19.7333 83.1533 19.4267 82.9 19.2C82.6467 18.96 82.2533 18.7467 81.72 18.56C81.2 18.36 80.5067 18.1533 79.64 17.94C78.64 17.7 77.8 17.4133 77.12 17.08C76.4533 16.7333 75.9467 16.3 75.6 15.78C75.2667 15.26 75.1 14.6 75.1 13.8C75.1 13.0267 75.3067 12.34 75.72 11.74C76.1467 11.14 76.7467 10.6667 77.52 10.32C78.3067 9.97333 79.24 9.8 80.32 9.8C81.1867 9.8 81.9533 9.92 82.62 10.16C83.2867 10.3867 83.84 10.6933 84.28 11.08C84.72 11.4533 85.0533 11.86 85.28 12.3C85.52 12.7267 85.6467 13.1467 85.66 13.56C85.66 13.6667 85.62 13.7667 85.54 13.86C85.4733 13.94 85.3733 13.98 85.24 13.98H83.38C83.2733 13.98 83.1667 13.9533 83.06 13.9C82.9533 13.8467 82.8667 13.7467 82.8 13.6C82.72 13.1867 82.46 12.8333 82.02 12.54C81.58 12.2467 81.0133 12.1 80.32 12.1C79.6 12.1 79.02 12.2333 78.58 12.5C78.14 12.7667 77.92 13.18 77.92 13.74C77.92 14.1133 78.0267 14.4267 78.24 14.68C78.4667 14.92 78.82 15.1333 79.3 15.32C79.7933 15.5067 80.44 15.7067 81.24 15.92C82.3733 16.1733 83.3 16.4667 84.02 16.8C84.74 17.1333 85.2667 17.56 85.6 18.08C85.9333 18.5867 86.1 19.2333 86.1 20.02C86.1 20.9 85.86 21.6533 85.38 22.28C84.9133 22.8933 84.2533 23.3667 83.4 23.7C82.5467 24.0333 81.5533 24.2 80.42 24.2ZM88.632 24C88.4987 24 88.3854 23.9533 88.292 23.86C88.1987 23.7667 88.152 23.6533 88.152 23.52V14.08C88.152 13.9467 88.1987 13.8333 88.292 13.74C88.3854 13.6467 88.4987 13.6 88.632 13.6H90.192C90.3254 13.6 90.4387 13.6467 90.532 13.74C90.6254 13.8333 90.672 13.9467 90.672 14.08V14.76C90.952 14.3867 91.3254 14.0733 91.792 13.82C92.272 13.5533 92.8387 13.4133 93.492 13.4C95.012 13.3733 96.072 13.9667 96.672 15.18C96.9787 14.6467 97.4187 14.22 97.992 13.9C98.5787 13.5667 99.2254 13.4 99.932 13.4C100.625 13.4 101.252 13.56 101.812 13.88C102.385 14.2 102.832 14.6867 103.152 15.34C103.485 15.98 103.652 16.7933 103.652 17.78V23.52C103.652 23.6533 103.605 23.7667 103.512 23.86C103.419 23.9533 103.305 24 103.172 24H101.532C101.399 24 101.285 23.9533 101.192 23.86C101.099 23.7667 101.052 23.6533 101.052 23.52V17.94C101.052 17.34 100.965 16.8667 100.792 16.52C100.619 16.16 100.385 15.9067 100.092 15.76C99.7987 15.6133 99.472 15.54 99.112 15.54C98.8187 15.54 98.5254 15.6133 98.232 15.76C97.9387 15.9067 97.6987 16.16 97.512 16.52C97.3254 16.8667 97.232 17.34 97.232 17.94V23.52C97.232 23.6533 97.1854 23.7667 97.092 23.86C96.9987 23.9533 96.8854 24 96.752 24H95.112C94.9654 24 94.8454 23.9533 94.752 23.86C94.672 23.7667 94.632 23.6533 94.632 23.52V17.94C94.632 17.34 94.5387 16.8667 94.352 16.52C94.1654 16.16 93.9254 15.9067 93.632 15.76C93.3387 15.6133 93.0254 15.54 92.692 15.54C92.3854 15.54 92.0854 15.62 91.792 15.78C91.4987 15.9267 91.2587 16.1733 91.072 16.52C90.8854 16.8667 90.792 17.34 90.792 17.94V23.52C90.792 23.6533 90.7454 23.7667 90.652 23.86C90.5587 23.9533 90.4454 24 90.312 24H88.632ZM109.219 24.2C108.526 24.2 107.899 24.0667 107.339 23.8C106.779 23.52 106.332 23.1533 105.999 22.7C105.679 22.2333 105.519 21.7133 105.519 21.14C105.519 20.2067 105.892 19.4667 106.639 18.92C107.399 18.36 108.399 17.9867 109.639 17.8L112.379 17.4V16.98C112.379 16.42 112.239 15.9867 111.959 15.68C111.679 15.3733 111.199 15.22 110.519 15.22C110.039 15.22 109.646 15.32 109.339 15.52C109.046 15.7067 108.826 15.96 108.679 16.28C108.572 16.4533 108.419 16.54 108.219 16.54H106.639C106.492 16.54 106.379 16.5 106.299 16.42C106.232 16.34 106.199 16.2333 106.199 16.1C106.212 15.8867 106.299 15.6267 106.459 15.32C106.619 15.0133 106.872 14.72 107.219 14.44C107.566 14.1467 108.012 13.9 108.559 13.7C109.106 13.5 109.766 13.4 110.539 13.4C111.379 13.4 112.086 13.5067 112.659 13.72C113.246 13.92 113.712 14.1933 114.059 14.54C114.406 14.8867 114.659 15.2933 114.819 15.76C114.979 16.2267 115.059 16.72 115.059 17.24V23.52C115.059 23.6533 115.012 23.7667 114.919 23.86C114.826 23.9533 114.712 24 114.579 24H112.959C112.812 24 112.692 23.9533 112.599 23.86C112.519 23.7667 112.479 23.6533 112.479 23.52V22.74C112.306 22.9933 112.072 23.2333 111.779 23.46C111.486 23.6733 111.126 23.8533 110.699 24C110.286 24.1333 109.792 24.2 109.219 24.2ZM109.899 22.3C110.366 22.3 110.786 22.2 111.159 22C111.546 21.8 111.846 21.4933 112.059 21.08C112.286 20.6533 112.399 20.12 112.399 19.48V19.06L110.399 19.38C109.612 19.5 109.026 19.6933 108.639 19.96C108.252 20.2267 108.059 20.5533 108.059 20.94C108.059 21.2333 108.146 21.4867 108.319 21.7C108.506 21.9 108.739 22.0533 109.019 22.16C109.299 22.2533 109.592 22.3 109.899 22.3ZM118.105 24C117.971 24 117.858 23.9533 117.765 23.86C117.671 23.7667 117.625 23.6533 117.625 23.52V14.1C117.625 13.9533 117.671 13.8333 117.765 13.74C117.858 13.6467 117.971 13.6 118.105 13.6H119.725C119.858 13.6 119.971 13.6467 120.065 13.74C120.171 13.8333 120.225 13.9533 120.225 14.1V14.92C120.531 14.4933 120.925 14.1667 121.405 13.94C121.898 13.7133 122.465 13.6 123.105 13.6H123.925C124.071 13.6 124.185 13.6467 124.265 13.74C124.358 13.8333 124.405 13.9467 124.405 14.08V15.52C124.405 15.6533 124.358 15.7667 124.265 15.86C124.185 15.9533 124.071 16 123.925 16H122.365C121.725 16 121.225 16.18 120.865 16.54C120.518 16.9 120.345 17.3933 120.345 18.02V23.52C120.345 23.6533 120.298 23.7667 120.205 23.86C120.111 23.9533 119.991 24 119.845 24H118.105ZM130.665 24C129.865 24 129.191 23.86 128.645 23.58C128.098 23.3 127.691 22.8867 127.425 22.34C127.158 21.78 127.025 21.0867 127.025 20.26V15.72H125.445C125.311 15.72 125.198 15.6733 125.105 15.58C125.011 15.4867 124.965 15.3733 124.965 15.24V14.08C124.965 13.9467 125.011 13.8333 125.105 13.74C125.198 13.6467 125.311 13.6 125.445 13.6H127.025V10.28C127.025 10.1467 127.065 10.0333 127.145 9.94C127.238 9.84667 127.358 9.8 127.505 9.8H129.125C129.258 9.8 129.371 9.84667 129.465 9.94C129.558 10.0333 129.605 10.1467 129.605 10.28V13.6H132.105C132.238 13.6 132.351 13.6467 132.445 13.74C132.538 13.8333 132.585 13.9467 132.585 14.08V15.24C132.585 15.3733 132.538 15.4867 132.445 15.58C132.351 15.6733 132.238 15.72 132.105 15.72H129.605V20.06C129.605 20.6067 129.698 21.0333 129.885 21.34C130.085 21.6467 130.425 21.8 130.905 21.8H132.285C132.418 21.8 132.531 21.8467 132.625 21.94C132.718 22.0333 132.765 22.1467 132.765 22.28V23.52C132.765 23.6533 132.718 23.7667 132.625 23.86C132.531 23.9533 132.418 24 132.285 24H130.665ZM144.789 24.2C143.562 24.2 142.516 23.9867 141.649 23.56C140.796 23.1333 140.129 22.52 139.649 21.72C139.182 20.9067 138.929 19.94 138.889 18.82C138.876 18.2467 138.869 17.6333 138.869 16.98C138.869 16.3133 138.876 15.6867 138.889 15.1C138.929 13.9933 139.182 13.0467 139.649 12.26C140.129 11.4733 140.802 10.8667 141.669 10.44C142.549 10.0133 143.589 9.8 144.789 9.8C145.762 9.8 146.616 9.93333 147.349 10.2C148.082 10.4533 148.689 10.7867 149.169 11.2C149.662 11.6 150.029 12.0333 150.269 12.5C150.522 12.9667 150.656 13.4 150.669 13.8C150.682 13.92 150.649 14.02 150.569 14.1C150.489 14.18 150.382 14.22 150.249 14.22H148.189C148.056 14.22 147.956 14.1933 147.889 14.14C147.822 14.0867 147.762 14.0067 147.709 13.9C147.602 13.62 147.436 13.3467 147.209 13.08C146.982 12.8 146.676 12.5667 146.289 12.38C145.902 12.1933 145.402 12.1 144.789 12.1C143.882 12.1 143.156 12.34 142.609 12.82C142.076 13.3 141.789 14.0933 141.749 15.2C141.709 16.36 141.709 17.5333 141.749 18.72C141.789 19.8533 142.082 20.6667 142.629 21.16C143.189 21.6533 143.922 21.9 144.829 21.9C145.429 21.9 145.962 21.7933 146.429 21.58C146.909 21.3667 147.282 21.0333 147.549 20.58C147.829 20.1267 147.969 19.5467 147.969 18.84V18.22H145.529C145.396 18.22 145.282 18.1733 145.189 18.08C145.096 17.9867 145.049 17.8667 145.049 17.72V16.66C145.049 16.5133 145.096 16.3933 145.189 16.3C145.282 16.2067 145.396 16.16 145.529 16.16H150.309C150.456 16.16 150.569 16.2067 150.649 16.3C150.742 16.3933 150.789 16.5133 150.789 16.66V18.76C150.789 19.88 150.542 20.8467 150.049 21.66C149.569 22.4733 148.876 23.1 147.969 23.54C147.076 23.98 146.016 24.2 144.789 24.2ZM153.593 24C153.46 24 153.346 23.9533 153.253 23.86C153.16 23.7667 153.113 23.6533 153.113 23.52V14.08C153.113 13.9467 153.16 13.8333 153.253 13.74C153.346 13.6467 153.46 13.6 153.593 13.6H155.253C155.4 13.6 155.513 13.6467 155.593 13.74C155.686 13.8333 155.733 13.9467 155.733 14.08V23.52C155.733 23.6533 155.686 23.7667 155.593 23.86C155.513 23.9533 155.4 24 155.253 24H153.593ZM153.513 11.88C153.366 11.88 153.246 11.84 153.153 11.76C153.073 11.6667 153.033 11.5467 153.033 11.4V9.96C153.033 9.82667 153.073 9.71333 153.153 9.62C153.246 9.52667 153.366 9.48 153.513 9.48H155.333C155.48 9.48 155.6 9.52667 155.693 9.62C155.786 9.71333 155.833 9.82667 155.833 9.96V11.4C155.833 11.5467 155.786 11.6667 155.693 11.76C155.6 11.84 155.48 11.88 155.333 11.88H153.513ZM159.986 24C159.853 24 159.74 23.9533 159.646 23.86C159.553 23.7667 159.506 23.6533 159.506 23.52V15.72H157.886C157.753 15.72 157.64 15.6733 157.546 15.58C157.453 15.4867 157.406 15.3733 157.406 15.24V14.08C157.406 13.9467 157.453 13.8333 157.546 13.74C157.64 13.6467 157.753 13.6 157.886 13.6H159.506V12.78C159.506 11.98 159.653 11.32 159.946 10.8C160.24 10.2667 160.673 9.86667 161.246 9.6C161.82 9.33333 162.546 9.2 163.426 9.2H164.786C164.933 9.2 165.046 9.24667 165.126 9.34C165.22 9.43333 165.266 9.54667 165.266 9.68V10.84C165.266 10.9733 165.22 11.0867 165.126 11.18C165.046 11.2733 164.933 11.32 164.786 11.32H163.506C162.973 11.32 162.606 11.4533 162.406 11.72C162.206 11.9867 162.106 12.3733 162.106 12.88V13.6H164.586C164.733 13.6 164.846 13.6467 164.926 13.74C165.02 13.8333 165.066 13.9467 165.066 14.08V15.24C165.066 15.3733 165.02 15.4867 164.926 15.58C164.846 15.6733 164.733 15.72 164.586 15.72H162.106V23.52C162.106 23.6533 162.06 23.7667 161.966 23.86C161.873 23.9533 161.76 24 161.626 24H159.986ZM171.368 24C170.568 24 169.894 23.86 169.348 23.58C168.801 23.3 168.394 22.8867 168.128 22.34C167.861 21.78 167.728 21.0867 167.728 20.26V15.72H166.148C166.014 15.72 165.901 15.6733 165.808 15.58C165.714 15.4867 165.668 15.3733 165.668 15.24V14.08C165.668 13.9467 165.714 13.8333 165.808 13.74C165.901 13.6467 166.014 13.6 166.148 13.6H167.728V10.28C167.728 10.1467 167.768 10.0333 167.848 9.94C167.941 9.84667 168.061 9.8 168.208 9.8H169.828C169.961 9.8 170.074 9.84667 170.168 9.94C170.261 10.0333 170.308 10.1467 170.308 10.28V13.6H172.808C172.941 13.6 173.054 13.6467 173.148 13.74C173.241 13.8333 173.288 13.9467 173.288 14.08V15.24C173.288 15.3733 173.241 15.4867 173.148 15.58C173.054 15.6733 172.941 15.72 172.808 15.72H170.308V20.06C170.308 20.6067 170.401 21.0333 170.588 21.34C170.788 21.6467 171.128 21.8 171.608 21.8H172.988C173.121 21.8 173.234 21.8467 173.328 21.94C173.421 22.0333 173.468 22.1467 173.468 22.28V23.52C173.468 23.6533 173.421 23.7667 173.328 23.86C173.234 23.9533 173.121 24 172.988 24H171.368ZM185.452 24.2C184.212 24.2 183.159 23.9867 182.292 23.56C181.439 23.12 180.786 22.5 180.332 21.7C179.879 20.8867 179.626 19.9133 179.572 18.78C179.559 18.2333 179.552 17.6467 179.552 17.02C179.552 16.3933 179.559 15.7933 179.572 15.22C179.626 14.1 179.879 13.1333 180.332 12.32C180.799 11.5067 181.459 10.8867 182.312 10.46C183.179 10.02 184.226 9.8 185.452 9.8C186.359 9.8 187.172 9.92 187.892 10.16C188.612 10.4 189.226 10.7333 189.732 11.16C190.239 11.5733 190.632 12.06 190.912 12.62C191.192 13.18 191.339 13.7867 191.352 14.44C191.366 14.56 191.326 14.66 191.232 14.74C191.152 14.82 191.052 14.86 190.932 14.86H189.032C188.886 14.86 188.766 14.8267 188.672 14.76C188.579 14.68 188.512 14.5533 188.472 14.38C188.259 13.5 187.892 12.9 187.372 12.58C186.852 12.26 186.206 12.1 185.432 12.1C184.539 12.1 183.826 12.3533 183.292 12.86C182.759 13.3533 182.472 14.1733 182.432 15.32C182.392 16.4133 182.392 17.5333 182.432 18.68C182.472 19.8267 182.759 20.6533 183.292 21.16C183.826 21.6533 184.539 21.9 185.432 21.9C186.206 21.9 186.852 21.74 187.372 21.42C187.892 21.0867 188.259 20.4867 188.472 19.62C188.512 19.4333 188.579 19.3067 188.672 19.24C188.766 19.1733 188.886 19.14 189.032 19.14H190.932C191.052 19.14 191.152 19.18 191.232 19.26C191.326 19.34 191.366 19.44 191.352 19.56C191.339 20.2133 191.192 20.82 190.912 21.38C190.632 21.94 190.239 22.4333 189.732 22.86C189.226 23.2733 188.612 23.6 187.892 23.84C187.172 24.08 186.359 24.2 185.452 24.2ZM196.504 24.2C195.811 24.2 195.184 24.0667 194.624 23.8C194.064 23.52 193.617 23.1533 193.284 22.7C192.964 22.2333 192.804 21.7133 192.804 21.14C192.804 20.2067 193.177 19.4667 193.924 18.92C194.684 18.36 195.684 17.9867 196.924 17.8L199.664 17.4V16.98C199.664 16.42 199.524 15.9867 199.244 15.68C198.964 15.3733 198.484 15.22 197.804 15.22C197.324 15.22 196.931 15.32 196.624 15.52C196.331 15.7067 196.111 15.96 195.964 16.28C195.857 16.4533 195.704 16.54 195.504 16.54H193.924C193.777 16.54 193.664 16.5 193.584 16.42C193.517 16.34 193.484 16.2333 193.484 16.1C193.497 15.8867 193.584 15.6267 193.744 15.32C193.904 15.0133 194.157 14.72 194.504 14.44C194.851 14.1467 195.297 13.9 195.844 13.7C196.391 13.5 197.051 13.4 197.824 13.4C198.664 13.4 199.371 13.5067 199.944 13.72C200.531 13.92 200.997 14.1933 201.344 14.54C201.691 14.8867 201.944 15.2933 202.104 15.76C202.264 16.2267 202.344 16.72 202.344 17.24V23.52C202.344 23.6533 202.297 23.7667 202.204 23.86C202.111 23.9533 201.997 24 201.864 24H200.244C200.097 24 199.977 23.9533 199.884 23.86C199.804 23.7667 199.764 23.6533 199.764 23.52V22.74C199.591 22.9933 199.357 23.2333 199.064 23.46C198.771 23.6733 198.411 23.8533 197.984 24C197.571 24.1333 197.077 24.2 196.504 24.2ZM197.184 22.3C197.651 22.3 198.071 22.2 198.444 22C198.831 21.8 199.131 21.4933 199.344 21.08C199.571 20.6533 199.684 20.12 199.684 19.48V19.06L197.684 19.38C196.897 19.5 196.311 19.6933 195.924 19.96C195.537 20.2267 195.344 20.5533 195.344 20.94C195.344 21.2333 195.431 21.4867 195.604 21.7C195.791 21.9 196.024 22.0533 196.304 22.16C196.584 22.2533 196.877 22.3 197.184 22.3ZM205.39 24C205.257 24 205.143 23.9533 205.05 23.86C204.957 23.7667 204.91 23.6533 204.91 23.52V14.1C204.91 13.9533 204.957 13.8333 205.05 13.74C205.143 13.6467 205.257 13.6 205.39 13.6H207.01C207.143 13.6 207.257 13.6467 207.35 13.74C207.457 13.8333 207.51 13.9533 207.51 14.1V14.92C207.817 14.4933 208.21 14.1667 208.69 13.94C209.183 13.7133 209.75 13.6 210.39 13.6H211.21C211.357 13.6 211.47 13.6467 211.55 13.74C211.643 13.8333 211.69 13.9467 211.69 14.08V15.52C211.69 15.6533 211.643 15.7667 211.55 15.86C211.47 15.9533 211.357 16 211.21 16H209.65C209.01 16 208.51 16.18 208.15 16.54C207.803 16.9 207.63 17.3933 207.63 18.02V23.52C207.63 23.6533 207.583 23.7667 207.49 23.86C207.397 23.9533 207.277 24 207.13 24H205.39ZM216.953 24.2C216.26 24.2 215.647 24.0867 215.113 23.86C214.593 23.62 214.16 23.2867 213.813 22.86C213.467 22.4333 213.2 21.9333 213.013 21.36C212.827 20.7733 212.72 20.1333 212.693 19.44C212.68 19.2 212.673 18.9867 212.673 18.8C212.673 18.6 212.68 18.38 212.693 18.14C212.72 17.4733 212.82 16.8533 212.993 16.28C213.18 15.7067 213.447 15.2067 213.793 14.78C214.153 14.34 214.593 14 215.113 13.76C215.647 13.52 216.26 13.4 216.953 13.4C217.673 13.4 218.28 13.5267 218.773 13.78C219.28 14.02 219.7 14.3333 220.033 14.72V10.28C220.033 10.1467 220.073 10.0333 220.153 9.94C220.247 9.84667 220.367 9.8 220.513 9.8H222.213C222.347 9.8 222.46 9.84667 222.553 9.94C222.647 10.0333 222.693 10.1467 222.693 10.28V23.52C222.693 23.6533 222.647 23.7667 222.553 23.86C222.46 23.9533 222.347 24 222.213 24H220.633C220.487 24 220.367 23.9533 220.273 23.86C220.193 23.7667 220.153 23.6533 220.153 23.52V22.78C219.82 23.1933 219.393 23.5333 218.873 23.8C218.367 24.0667 217.727 24.2 216.953 24.2ZM217.693 22.06C218.253 22.06 218.7 21.9333 219.033 21.68C219.367 21.4267 219.613 21.1067 219.773 20.72C219.933 20.32 220.02 19.9133 220.033 19.5C220.047 19.26 220.053 19.0067 220.053 18.74C220.053 18.46 220.047 18.2 220.033 17.96C220.02 17.56 219.927 17.18 219.753 16.82C219.58 16.4467 219.327 16.14 218.993 15.9C218.66 15.66 218.227 15.54 217.693 15.54C217.133 15.54 216.687 15.6667 216.353 15.92C216.033 16.16 215.8 16.48 215.653 16.88C215.507 17.28 215.42 17.72 215.393 18.2C215.38 18.6 215.38 19 215.393 19.4C215.42 19.88 215.507 20.32 215.653 20.72C215.8 21.12 216.033 21.4467 216.353 21.7C216.687 21.94 217.133 22.06 217.693 22.06Z" fill="#555555"/>
<path d="M75.54 47C75.4373 47 75.358 46.972 75.302 46.916C75.246 46.8507 75.218 46.7713 75.218 46.678V37.536C75.218 37.4333 75.246 37.354 75.302 37.298C75.358 37.2327 75.4373 37.2 75.54 37.2H79.376C80.076 37.2 80.6453 37.3167 81.084 37.55C81.532 37.774 81.8587 38.082 82.064 38.474C82.2787 38.866 82.386 39.3047 82.386 39.79C82.386 40.1727 82.3207 40.504 82.19 40.784C82.0687 41.0547 81.9147 41.2787 81.728 41.456C81.5413 41.624 81.3593 41.7547 81.182 41.848C81.546 42.0253 81.868 42.3147 82.148 42.716C82.4373 43.1173 82.582 43.6027 82.582 44.172C82.582 44.6853 82.4653 45.1567 82.232 45.586C81.9987 46.0153 81.6487 46.3607 81.182 46.622C80.7247 46.874 80.1553 47 79.474 47H75.54ZM76.59 45.866H79.292C79.8987 45.866 80.3653 45.7027 80.692 45.376C81.0187 45.0493 81.182 44.648 81.182 44.172C81.182 43.6773 81.0187 43.2713 80.692 42.954C80.3653 42.6273 79.8987 42.464 79.292 42.464H76.59V45.866ZM76.59 41.344H79.166C79.7633 41.344 80.216 41.2087 80.524 40.938C80.832 40.658 80.986 40.28 80.986 39.804C80.986 39.328 80.832 38.964 80.524 38.712C80.216 38.46 79.7633 38.334 79.166 38.334H76.59V41.344ZM87.1036 47.14C86.5062 47.14 85.9976 47.0093 85.5776 46.748C85.1669 46.4773 84.8542 46.104 84.6396 45.628C84.4249 45.152 84.3176 44.606 84.3176 43.99V40.042C84.3176 39.9487 84.3456 39.874 84.4016 39.818C84.4669 39.7527 84.5462 39.72 84.6396 39.72H85.3396C85.4329 39.72 85.5076 39.7527 85.5636 39.818C85.6289 39.874 85.6616 39.9487 85.6616 40.042V43.92C85.6616 45.3107 86.2682 46.006 87.4816 46.006C88.0602 46.006 88.5222 45.824 88.8676 45.46C89.2222 45.0867 89.3996 44.5733 89.3996 43.92V40.042C89.3996 39.9487 89.4276 39.874 89.4836 39.818C89.5489 39.7527 89.6282 39.72 89.7216 39.72H90.4076C90.5102 39.72 90.5896 39.7527 90.6456 39.818C90.7016 39.874 90.7296 39.9487 90.7296 40.042V46.678C90.7296 46.7713 90.7016 46.8507 90.6456 46.916C90.5896 46.972 90.5102 47 90.4076 47H89.7636C89.6702 47 89.5909 46.972 89.5256 46.916C89.4696 46.8507 89.4416 46.7713 89.4416 46.678V46.062C89.1896 46.3887 88.8816 46.65 88.5176 46.846C88.1629 47.042 87.6916 47.14 87.1036 47.14ZM94.0834 49.66C94.0088 49.66 93.9434 49.632 93.8874 49.576C93.8314 49.52 93.8034 49.4547 93.8034 49.38C93.8034 49.3427 93.8081 49.3053 93.8174 49.268C93.8268 49.2307 93.8454 49.184 93.8734 49.128L94.9514 46.566L92.2774 40.252C92.2308 40.14 92.2074 40.0607 92.2074 40.014C92.2074 39.93 92.2354 39.86 92.2914 39.804C92.3474 39.748 92.4174 39.72 92.5014 39.72H93.1874C93.2808 39.72 93.3554 39.7433 93.4114 39.79C93.4674 39.8367 93.5048 39.8927 93.5234 39.958L95.6514 45.054L97.8354 39.958C97.8634 39.8927 97.9008 39.8367 97.9474 39.79C98.0034 39.7433 98.0828 39.72 98.1854 39.72H98.8434C98.9274 39.72 98.9974 39.748 99.0534 39.804C99.1094 39.86 99.1374 39.9253 99.1374 40C99.1374 40.0467 99.1141 40.1307 99.0674 40.252L95.0914 49.422C95.0634 49.4873 95.0214 49.5433 94.9654 49.59C94.9188 49.6367 94.8441 49.66 94.7414 49.66H94.0834ZM106.607 48.4C106.504 48.4 106.425 48.3673 106.369 48.302C106.313 48.246 106.285 48.1713 106.285 48.078V47.098C105.604 47.042 105.03 46.888 104.563 46.636C104.096 46.3747 103.742 46.062 103.499 45.698C103.256 45.334 103.126 44.9467 103.107 44.536C103.107 44.4613 103.135 44.396 103.191 44.34C103.256 44.2747 103.331 44.242 103.415 44.242H104.129C104.241 44.242 104.325 44.27 104.381 44.326C104.437 44.382 104.474 44.4473 104.493 44.522C104.549 44.746 104.666 44.97 104.843 45.194C105.02 45.4087 105.272 45.5907 105.599 45.74C105.935 45.88 106.364 45.95 106.887 45.95C107.69 45.95 108.278 45.81 108.651 45.53C109.034 45.2407 109.225 44.858 109.225 44.382C109.225 44.0553 109.122 43.794 108.917 43.598C108.721 43.3927 108.418 43.2107 108.007 43.052C107.596 42.8933 107.064 42.7207 106.411 42.534C105.73 42.338 105.165 42.1233 104.717 41.89C104.269 41.6567 103.933 41.3673 103.709 41.022C103.494 40.6767 103.387 40.238 103.387 39.706C103.387 39.0247 103.639 38.4413 104.143 37.956C104.647 37.4613 105.361 37.172 106.285 37.088V36.122C106.285 36.0287 106.313 35.954 106.369 35.898C106.425 35.8327 106.504 35.8 106.607 35.8H107.139C107.232 35.8 107.307 35.8327 107.363 35.898C107.428 35.954 107.461 36.0287 107.461 36.122V37.102C108.086 37.1767 108.609 37.3493 109.029 37.62C109.449 37.8907 109.766 38.2033 109.981 38.558C110.196 38.9127 110.308 39.258 110.317 39.594C110.317 39.6593 110.294 39.7247 110.247 39.79C110.2 39.846 110.126 39.874 110.023 39.874H109.281C109.216 39.874 109.146 39.8553 109.071 39.818C109.006 39.7807 108.954 39.7107 108.917 39.608C108.861 39.2253 108.646 38.9033 108.273 38.642C107.9 38.3807 107.414 38.25 106.817 38.25C106.21 38.25 105.716 38.3667 105.333 38.6C104.96 38.8333 104.773 39.1973 104.773 39.692C104.773 40.0093 104.862 40.2753 105.039 40.49C105.216 40.6953 105.496 40.8773 105.879 41.036C106.262 41.1947 106.761 41.3627 107.377 41.54C108.124 41.7453 108.735 41.9647 109.211 42.198C109.687 42.422 110.037 42.7067 110.261 43.052C110.494 43.388 110.611 43.822 110.611 44.354C110.611 44.886 110.48 45.348 110.219 45.74C109.967 46.132 109.603 46.4447 109.127 46.678C108.66 46.9113 108.105 47.056 107.461 47.112V48.078C107.461 48.1713 107.428 48.246 107.363 48.302C107.307 48.3673 107.232 48.4 107.139 48.4H106.607ZM115.065 47C114.972 47 114.893 46.972 114.827 46.916C114.771 46.8507 114.743 46.7713 114.743 46.678V38.838L112.419 40.63C112.345 40.686 112.265 40.7093 112.181 40.7C112.097 40.6907 112.027 40.6487 111.971 40.574L111.607 40.112C111.551 40.028 111.528 39.944 111.537 39.86C111.556 39.776 111.603 39.706 111.677 39.65L114.729 37.298C114.795 37.2513 114.855 37.2233 114.911 37.214C114.967 37.2047 115.028 37.2 115.093 37.2H115.807C115.901 37.2 115.975 37.2327 116.031 37.298C116.087 37.354 116.115 37.4287 116.115 37.522V46.678C116.115 46.7713 116.087 46.8507 116.031 46.916C115.975 46.972 115.901 47 115.807 47H115.065ZM121.627 47.14C120.983 47.14 120.437 47.042 119.989 46.846C119.551 46.6407 119.191 46.3607 118.911 46.006C118.631 45.6513 118.426 45.2453 118.295 44.788C118.174 44.3307 118.104 43.8453 118.085 43.332C118.076 43.08 118.067 42.814 118.057 42.534C118.057 42.254 118.057 41.974 118.057 41.694C118.067 41.4047 118.076 41.1293 118.085 40.868C118.095 40.3547 118.165 39.8693 118.295 39.412C118.435 38.9453 118.641 38.5393 118.911 38.194C119.191 37.8393 119.555 37.564 120.003 37.368C120.451 37.1627 120.993 37.06 121.627 37.06C122.271 37.06 122.813 37.1627 123.251 37.368C123.699 37.564 124.063 37.8393 124.343 38.194C124.623 38.5393 124.829 38.9453 124.959 39.412C125.099 39.8693 125.174 40.3547 125.183 40.868C125.193 41.1293 125.197 41.4047 125.197 41.694C125.207 41.974 125.207 42.254 125.197 42.534C125.197 42.814 125.193 43.08 125.183 43.332C125.174 43.8453 125.099 44.3307 124.959 44.788C124.829 45.2453 124.623 45.6513 124.343 46.006C124.073 46.3607 123.713 46.6407 123.265 46.846C122.827 47.042 122.281 47.14 121.627 47.14ZM121.627 45.95C122.355 45.95 122.892 45.712 123.237 45.236C123.592 44.7507 123.774 44.0927 123.783 43.262C123.802 42.9913 123.811 42.73 123.811 42.478C123.811 42.2167 123.811 41.96 123.811 41.708C123.811 41.4467 123.802 41.19 123.783 40.938C123.774 40.126 123.592 39.4773 123.237 38.992C122.892 38.4973 122.355 38.25 121.627 38.25C120.909 38.25 120.372 38.4973 120.017 38.992C119.672 39.4773 119.49 40.126 119.471 40.938C119.471 41.19 119.467 41.4467 119.457 41.708C119.457 41.96 119.457 42.2167 119.457 42.478C119.467 42.73 119.471 42.9913 119.471 43.262C119.49 44.0927 119.677 44.7507 120.031 45.236C120.386 45.712 120.918 45.95 121.627 45.95ZM130.514 47.14C129.87 47.14 129.324 47.042 128.876 46.846C128.438 46.6407 128.078 46.3607 127.798 46.006C127.518 45.6513 127.313 45.2453 127.182 44.788C127.061 44.3307 126.991 43.8453 126.972 43.332C126.963 43.08 126.954 42.814 126.944 42.534C126.944 42.254 126.944 41.974 126.944 41.694C126.954 41.4047 126.963 41.1293 126.972 40.868C126.982 40.3547 127.052 39.8693 127.182 39.412C127.322 38.9453 127.528 38.5393 127.798 38.194C128.078 37.8393 128.442 37.564 128.89 37.368C129.338 37.1627 129.88 37.06 130.514 37.06C131.158 37.06 131.7 37.1627 132.138 37.368C132.586 37.564 132.95 37.8393 133.23 38.194C133.51 38.5393 133.716 38.9453 133.846 39.412C133.986 39.8693 134.061 40.3547 134.07 40.868C134.08 41.1293 134.084 41.4047 134.084 41.694C134.094 41.974 134.094 42.254 134.084 42.534C134.084 42.814 134.08 43.08 134.07 43.332C134.061 43.8453 133.986 44.3307 133.846 44.788C133.716 45.2453 133.51 45.6513 133.23 46.006C132.96 46.3607 132.6 46.6407 132.152 46.846C131.714 47.042 131.168 47.14 130.514 47.14ZM130.514 45.95C131.242 45.95 131.779 45.712 132.124 45.236C132.479 44.7507 132.661 44.0927 132.67 43.262C132.689 42.9913 132.698 42.73 132.698 42.478C132.698 42.2167 132.698 41.96 132.698 41.708C132.698 41.4467 132.689 41.19 132.67 40.938C132.661 40.126 132.479 39.4773 132.124 38.992C131.779 38.4973 131.242 38.25 130.514 38.25C129.796 38.25 129.259 38.4973 128.904 38.992C128.559 39.4773 128.377 40.126 128.358 40.938C128.358 41.19 128.354 41.4467 128.344 41.708C128.344 41.96 128.344 42.2167 128.344 42.478C128.354 42.73 128.358 42.9913 128.358 43.262C128.377 44.0927 128.564 44.7507 128.918 45.236C129.273 45.712 129.805 45.95 130.514 45.95ZM139.401 47.14C138.757 47.14 138.211 47.042 137.763 46.846C137.324 46.6407 136.965 46.3607 136.685 46.006C136.405 45.6513 136.2 45.2453 136.069 44.788C135.948 44.3307 135.878 43.8453 135.859 43.332C135.85 43.08 135.84 42.814 135.831 42.534C135.831 42.254 135.831 41.974 135.831 41.694C135.84 41.4047 135.85 41.1293 135.859 40.868C135.868 40.3547 135.938 39.8693 136.069 39.412C136.209 38.9453 136.414 38.5393 136.685 38.194C136.965 37.8393 137.329 37.564 137.777 37.368C138.225 37.1627 138.766 37.06 139.401 37.06C140.045 37.06 140.586 37.1627 141.025 37.368C141.473 37.564 141.837 37.8393 142.117 38.194C142.397 38.5393 142.602 38.9453 142.733 39.412C142.873 39.8693 142.948 40.3547 142.957 40.868C142.966 41.1293 142.971 41.4047 142.971 41.694C142.98 41.974 142.98 42.254 142.971 42.534C142.971 42.814 142.966 43.08 142.957 43.332C142.948 43.8453 142.873 44.3307 142.733 44.788C142.602 45.2453 142.397 45.6513 142.117 46.006C141.846 46.3607 141.487 46.6407 141.039 46.846C140.6 47.042 140.054 47.14 139.401 47.14ZM139.401 45.95C140.129 45.95 140.666 45.712 141.011 45.236C141.366 44.7507 141.548 44.0927 141.557 43.262C141.576 42.9913 141.585 42.73 141.585 42.478C141.585 42.2167 141.585 41.96 141.585 41.708C141.585 41.4467 141.576 41.19 141.557 40.938C141.548 40.126 141.366 39.4773 141.011 38.992C140.666 38.4973 140.129 38.25 139.401 38.25C138.682 38.25 138.146 38.4973 137.791 38.992C137.446 39.4773 137.264 40.126 137.245 40.938C137.245 41.19 137.24 41.4467 137.231 41.708C137.231 41.96 137.231 42.2167 137.231 42.478C137.24 42.73 137.245 42.9913 137.245 43.262C137.264 44.0927 137.45 44.7507 137.805 45.236C138.16 45.712 138.692 45.95 139.401 45.95ZM150.858 47C150.336 47 149.911 46.902 149.584 46.706C149.258 46.5007 149.02 46.216 148.87 45.852C148.721 45.4787 148.646 45.04 148.646 44.536V40.84H147.554C147.461 40.84 147.382 40.812 147.316 40.756C147.26 40.6907 147.232 40.6113 147.232 40.518V40.042C147.232 39.9487 147.26 39.874 147.316 39.818C147.382 39.7527 147.461 39.72 147.554 39.72H148.646V37.382C148.646 37.2887 148.674 37.214 148.73 37.158C148.796 37.0927 148.875 37.06 148.968 37.06H149.626C149.72 37.06 149.794 37.0927 149.85 37.158C149.916 37.214 149.948 37.2887 149.948 37.382V39.72H151.684C151.778 39.72 151.852 39.7527 151.908 39.818C151.974 39.874 152.006 39.9487 152.006 40.042V40.518C152.006 40.6113 151.974 40.6907 151.908 40.756C151.852 40.812 151.778 40.84 151.684 40.84H149.948V44.438C149.948 44.8767 150.023 45.222 150.172 45.474C150.322 45.726 150.588 45.852 150.97 45.852H151.824C151.918 45.852 151.992 45.8847 152.048 45.95C152.114 46.006 152.146 46.0807 152.146 46.174V46.678C152.146 46.7713 152.114 46.8507 152.048 46.916C151.992 46.972 151.918 47 151.824 47H150.858ZM156.467 47.14C155.758 47.14 155.165 47.0047 154.689 46.734C154.213 46.4633 153.849 46.09 153.597 45.614C153.345 45.1287 153.205 44.578 153.177 43.962C153.168 43.8033 153.163 43.6027 153.163 43.36C153.163 43.108 153.168 42.9073 153.177 42.758C153.205 42.1327 153.345 41.582 153.597 41.106C153.859 40.63 154.227 40.2567 154.703 39.986C155.179 39.7153 155.767 39.58 156.467 39.58C157.167 39.58 157.755 39.7153 158.231 39.986C158.707 40.2567 159.071 40.63 159.323 41.106C159.585 41.582 159.729 42.1327 159.757 42.758C159.767 42.9073 159.771 43.108 159.771 43.36C159.771 43.6027 159.767 43.8033 159.757 43.962C159.729 44.578 159.589 45.1287 159.337 45.614C159.085 46.09 158.721 46.4633 158.245 46.734C157.769 47.0047 157.177 47.14 156.467 47.14ZM156.467 46.062C157.046 46.062 157.508 45.88 157.853 45.516C158.199 45.1427 158.385 44.6013 158.413 43.892C158.423 43.752 158.427 43.5747 158.427 43.36C158.427 43.1453 158.423 42.968 158.413 42.828C158.385 42.1187 158.199 41.582 157.853 41.218C157.508 40.8447 157.046 40.658 156.467 40.658C155.889 40.658 155.422 40.8447 155.067 41.218C154.722 41.582 154.54 42.1187 154.521 42.828C154.512 42.968 154.507 43.1453 154.507 43.36C154.507 43.5747 154.512 43.752 154.521 43.892C154.54 44.6013 154.722 45.1427 155.067 45.516C155.422 45.88 155.889 46.062 156.467 46.062ZM167.938 50.08C167.303 50.08 166.781 49.996 166.37 49.828C165.969 49.66 165.651 49.4547 165.418 49.212C165.194 48.9787 165.031 48.7407 164.928 48.498C164.835 48.2647 164.783 48.078 164.774 47.938C164.765 47.8447 164.793 47.7653 164.858 47.7C164.933 47.6347 165.012 47.602 165.096 47.602H165.768C165.852 47.602 165.922 47.6207 165.978 47.658C166.034 47.6953 166.081 47.7747 166.118 47.896C166.174 48.036 166.258 48.19 166.37 48.358C166.482 48.5353 166.655 48.6847 166.888 48.806C167.121 48.9367 167.448 49.002 167.868 49.002C168.307 49.002 168.675 48.9413 168.974 48.82C169.273 48.708 169.497 48.5027 169.646 48.204C169.805 47.9147 169.884 47.5133 169.884 47V46.048C169.66 46.3373 169.366 46.58 169.002 46.776C168.638 46.9627 168.181 47.056 167.63 47.056C167.107 47.056 166.659 46.9673 166.286 46.79C165.913 46.6033 165.605 46.356 165.362 46.048C165.129 45.7307 164.951 45.3713 164.83 44.97C164.718 44.5687 164.653 44.1487 164.634 43.71C164.625 43.4487 164.625 43.192 164.634 42.94C164.653 42.5013 164.718 42.0813 164.83 41.68C164.951 41.2787 165.129 40.9193 165.362 40.602C165.605 40.2847 165.913 40.0373 166.286 39.86C166.659 39.6733 167.107 39.58 167.63 39.58C168.19 39.58 168.652 39.6873 169.016 39.902C169.389 40.1073 169.693 40.3593 169.926 40.658V40.056C169.926 39.9627 169.954 39.8833 170.01 39.818C170.075 39.7527 170.155 39.72 170.248 39.72H170.892C170.985 39.72 171.065 39.7527 171.13 39.818C171.195 39.8833 171.228 39.9627 171.228 40.056V46.846C171.228 47.4713 171.121 48.0267 170.906 48.512C170.701 48.9973 170.355 49.38 169.87 49.66C169.394 49.94 168.75 50.08 167.938 50.08ZM167.91 45.936C168.377 45.936 168.75 45.8287 169.03 45.614C169.319 45.3993 169.529 45.1287 169.66 44.802C169.8 44.4753 169.875 44.144 169.884 43.808C169.893 43.6773 169.898 43.5187 169.898 43.332C169.898 43.136 169.893 42.9727 169.884 42.842C169.875 42.506 169.8 42.1747 169.66 41.848C169.529 41.5213 169.319 41.2507 169.03 41.036C168.75 40.8213 168.377 40.714 167.91 40.714C167.443 40.714 167.07 40.8213 166.79 41.036C166.51 41.2413 166.309 41.5167 166.188 41.862C166.067 42.198 165.997 42.562 165.978 42.954C165.969 43.1967 165.969 43.444 165.978 43.696C165.997 44.088 166.067 44.4567 166.188 44.802C166.309 45.138 166.51 45.4133 166.79 45.628C167.07 45.8333 167.443 45.936 167.91 45.936ZM176.207 47.14C175.246 47.14 174.481 46.846 173.911 46.258C173.342 45.6607 173.029 44.8487 172.973 43.822C172.964 43.7007 172.959 43.5467 172.959 43.36C172.959 43.164 172.964 43.0053 172.973 42.884C173.011 42.2213 173.165 41.6427 173.435 41.148C173.706 40.644 174.075 40.2567 174.541 39.986C175.017 39.7153 175.573 39.58 176.207 39.58C176.917 39.58 177.509 39.7293 177.985 40.028C178.471 40.3267 178.839 40.7513 179.091 41.302C179.343 41.8527 179.469 42.4967 179.469 43.234V43.472C179.469 43.5747 179.437 43.654 179.371 43.71C179.315 43.766 179.241 43.794 179.147 43.794H174.303C174.303 43.8033 174.303 43.822 174.303 43.85C174.303 43.878 174.303 43.9013 174.303 43.92C174.322 44.3027 174.406 44.662 174.555 44.998C174.705 45.3247 174.919 45.5907 175.199 45.796C175.479 46.0013 175.815 46.104 176.207 46.104C176.543 46.104 176.823 46.0527 177.047 45.95C177.271 45.8473 177.453 45.7353 177.593 45.614C177.733 45.4833 177.827 45.3853 177.873 45.32C177.957 45.1987 178.023 45.1287 178.069 45.11C178.116 45.082 178.191 45.068 178.293 45.068H178.965C179.059 45.068 179.133 45.096 179.189 45.152C179.255 45.1987 179.283 45.2687 179.273 45.362C179.264 45.502 179.189 45.6747 179.049 45.88C178.909 46.076 178.709 46.272 178.447 46.468C178.186 46.664 177.869 46.8273 177.495 46.958C177.122 47.0793 176.693 47.14 176.207 47.14ZM174.303 42.828H178.139V42.786C178.139 42.366 178.06 41.9927 177.901 41.666C177.752 41.3393 177.533 41.0827 177.243 40.896C176.954 40.7 176.609 40.602 176.207 40.602C175.806 40.602 175.461 40.7 175.171 40.896C174.891 41.0827 174.677 41.3393 174.527 41.666C174.378 41.9927 174.303 42.366 174.303 42.786V42.828ZM183.944 47C183.422 47 182.997 46.902 182.67 46.706C182.344 46.5007 182.106 46.216 181.956 45.852C181.807 45.4787 181.732 45.04 181.732 44.536V40.84H180.64C180.547 40.84 180.468 40.812 180.402 40.756C180.346 40.6907 180.318 40.6113 180.318 40.518V40.042C180.318 39.9487 180.346 39.874 180.402 39.818C180.468 39.7527 180.547 39.72 180.64 39.72H181.732V37.382C181.732 37.2887 181.76 37.214 181.816 37.158C181.882 37.0927 181.961 37.06 182.054 37.06H182.712C182.806 37.06 182.88 37.0927 182.936 37.158C183.002 37.214 183.034 37.2887 183.034 37.382V39.72H184.77C184.864 39.72 184.938 39.7527 184.994 39.818C185.06 39.874 185.092 39.9487 185.092 40.042V40.518C185.092 40.6113 185.06 40.6907 184.994 40.756C184.938 40.812 184.864 40.84 184.77 40.84H183.034V44.438C183.034 44.8767 183.109 45.222 183.258 45.474C183.408 45.726 183.674 45.852 184.056 45.852H184.91C185.004 45.852 185.078 45.8847 185.134 45.95C185.2 46.006 185.232 46.0807 185.232 46.174V46.678C185.232 46.7713 185.2 46.8507 185.134 46.916C185.078 46.972 185.004 47 184.91 47H183.944ZM192.943 47.14C192.28 47.14 191.706 47.014 191.221 46.762C190.745 46.5007 190.376 46.132 190.115 45.656C189.853 45.1707 189.713 44.592 189.695 43.92C189.685 43.78 189.681 43.5933 189.681 43.36C189.681 43.1267 189.685 42.94 189.695 42.8C189.713 42.128 189.853 41.554 190.115 41.078C190.376 40.5927 190.745 40.224 191.221 39.972C191.706 39.7107 192.28 39.58 192.943 39.58C193.484 39.58 193.946 39.6547 194.329 39.804C194.721 39.9533 195.043 40.1447 195.295 40.378C195.547 40.6113 195.733 40.8633 195.855 41.134C195.985 41.4047 196.055 41.6613 196.065 41.904C196.074 41.9973 196.046 42.072 195.981 42.128C195.915 42.184 195.836 42.212 195.743 42.212H195.071C194.977 42.212 194.907 42.1933 194.861 42.156C194.814 42.1093 194.767 42.0347 194.721 41.932C194.553 41.4747 194.324 41.1527 194.035 40.966C193.745 40.7793 193.386 40.686 192.957 40.686C192.397 40.686 191.939 40.8587 191.585 41.204C191.239 41.5493 191.053 42.1047 191.025 42.87C191.015 43.206 191.015 43.5327 191.025 43.85C191.053 44.6247 191.239 45.1847 191.585 45.53C191.939 45.866 192.397 46.034 192.957 46.034C193.386 46.034 193.745 45.9407 194.035 45.754C194.324 45.5673 194.553 45.2453 194.721 44.788C194.767 44.6853 194.814 44.6153 194.861 44.578C194.907 44.5313 194.977 44.508 195.071 44.508H195.743C195.836 44.508 195.915 44.536 195.981 44.592C196.046 44.648 196.074 44.7227 196.065 44.816C196.055 45.012 196.013 45.2127 195.939 45.418C195.864 45.6233 195.743 45.8333 195.575 46.048C195.416 46.2533 195.215 46.44 194.973 46.608C194.73 46.7667 194.436 46.8973 194.091 47C193.755 47.0933 193.372 47.14 192.943 47.14ZM199.757 47.14C199.291 47.14 198.866 47.0467 198.483 46.86C198.101 46.6733 197.793 46.4213 197.559 46.104C197.326 45.7867 197.209 45.4273 197.209 45.026C197.209 44.382 197.471 43.8687 197.993 43.486C198.516 43.1033 199.197 42.8513 200.037 42.73L202.123 42.436V42.03C202.123 41.582 201.993 41.232 201.731 40.98C201.479 40.728 201.064 40.602 200.485 40.602C200.065 40.602 199.725 40.686 199.463 40.854C199.211 41.022 199.034 41.2367 198.931 41.498C198.875 41.638 198.777 41.708 198.637 41.708H198.007C197.905 41.708 197.825 41.68 197.769 41.624C197.723 41.5587 197.699 41.484 197.699 41.4C197.699 41.26 197.751 41.0873 197.853 40.882C197.965 40.6767 198.133 40.476 198.357 40.28C198.581 40.084 198.866 39.9207 199.211 39.79C199.566 39.65 199.995 39.58 200.499 39.58C201.059 39.58 201.531 39.6547 201.913 39.804C202.296 39.944 202.595 40.1353 202.809 40.378C203.033 40.6207 203.192 40.896 203.285 41.204C203.388 41.512 203.439 41.8247 203.439 42.142V46.678C203.439 46.7713 203.407 46.8507 203.341 46.916C203.285 46.972 203.211 47 203.117 47H202.473C202.371 47 202.291 46.972 202.235 46.916C202.179 46.8507 202.151 46.7713 202.151 46.678V46.076C202.03 46.244 201.867 46.412 201.661 46.58C201.456 46.7387 201.199 46.874 200.891 46.986C200.583 47.0887 200.205 47.14 199.757 47.14ZM200.051 46.09C200.434 46.09 200.784 46.0107 201.101 45.852C201.419 45.684 201.666 45.4273 201.843 45.082C202.03 44.7367 202.123 44.3027 202.123 43.78V43.388L200.499 43.626C199.837 43.7193 199.337 43.878 199.001 44.102C198.665 44.3167 198.497 44.592 198.497 44.928C198.497 45.1893 198.572 45.4087 198.721 45.586C198.88 45.754 199.076 45.88 199.309 45.964C199.552 46.048 199.799 46.09 200.051 46.09ZM205.774 47C205.681 47 205.601 46.972 205.536 46.916C205.48 46.8507 205.452 46.7713 205.452 46.678V40.056C205.452 39.9627 205.48 39.8833 205.536 39.818C205.601 39.7527 205.681 39.72 205.774 39.72H206.418C206.511 39.72 206.591 39.7527 206.656 39.818C206.721 39.8833 206.754 39.9627 206.754 40.056V40.672C206.941 40.3547 207.197 40.1167 207.524 39.958C207.851 39.7993 208.243 39.72 208.7 39.72H209.26C209.353 39.72 209.428 39.7527 209.484 39.818C209.54 39.874 209.568 39.9487 209.568 40.042V40.616C209.568 40.7093 209.54 40.784 209.484 40.84C209.428 40.896 209.353 40.924 209.26 40.924H208.42C207.916 40.924 207.519 41.0733 207.23 41.372C206.941 41.6613 206.796 42.058 206.796 42.562V46.678C206.796 46.7713 206.763 46.8507 206.698 46.916C206.633 46.972 206.553 47 206.46 47H205.774ZM213.28 47.14C212.767 47.14 212.323 47.0513 211.95 46.874C211.577 46.6873 211.269 46.44 211.026 46.132C210.793 45.8147 210.615 45.4553 210.494 45.054C210.382 44.6527 210.317 44.228 210.298 43.78C210.289 43.6307 210.284 43.4907 210.284 43.36C210.284 43.2293 210.289 43.0893 210.298 42.94C210.317 42.5013 210.382 42.0813 210.494 41.68C210.615 41.2787 210.793 40.9193 211.026 40.602C211.269 40.2847 211.577 40.0373 211.95 39.86C212.323 39.6733 212.767 39.58 213.28 39.58C213.831 39.58 214.288 39.678 214.652 39.874C215.016 40.07 215.315 40.3127 215.548 40.602V37.382C215.548 37.2887 215.576 37.214 215.632 37.158C215.697 37.0927 215.777 37.06 215.87 37.06H216.542C216.635 37.06 216.71 37.0927 216.766 37.158C216.831 37.214 216.864 37.2887 216.864 37.382V46.678C216.864 46.7713 216.831 46.8507 216.766 46.916C216.71 46.972 216.635 47 216.542 47H215.912C215.809 47 215.73 46.972 215.674 46.916C215.618 46.8507 215.59 46.7713 215.59 46.678V46.09C215.357 46.3887 215.053 46.6407 214.68 46.846C214.307 47.042 213.84 47.14 213.28 47.14ZM213.574 46.006C214.041 46.006 214.414 45.8987 214.694 45.684C214.974 45.4693 215.184 45.1987 215.324 44.872C215.464 44.536 215.539 44.1953 215.548 43.85C215.557 43.7007 215.562 43.5233 215.562 43.318C215.562 43.1033 215.557 42.9213 215.548 42.772C215.539 42.4453 215.459 42.1233 215.31 41.806C215.17 41.4887 214.955 41.2273 214.666 41.022C214.386 40.8167 214.022 40.714 213.574 40.714C213.098 40.714 212.72 40.8213 212.44 41.036C212.16 41.2413 211.959 41.5167 211.838 41.862C211.717 42.198 211.647 42.562 211.628 42.954C211.619 43.2247 211.619 43.4953 211.628 43.766C211.647 44.158 211.717 44.5267 211.838 44.872C211.959 45.208 212.16 45.4833 212.44 45.698C212.72 45.9033 213.098 46.006 213.574 46.006Z" fill="#515151" fill-opacity="0.71"/>
<mask id="path-3-outside-1_1_565" maskUnits="userSpaceOnUse" x="0" y="0" width="60" height="60" fill="black">
<rect fill="white" width="60" height="60"/>
<path d="M7.42459 18.7252C6.4521 19.215 5.83715 20.2095 5.83346 21.2984V28.0651C5.83346 29.1328 6.69904 29.9984 7.76679 29.9984V56.0984C7.76679 57.7 9.06517 58.9984 10.6668 58.9984H49.3335C50.9351 58.9984 52.2335 57.7 52.2335 56.0984V29.9984C53.3012 29.9984 54.1668 29.1328 54.1668 28.0651V21.2984C54.1631 20.2095 53.5482 19.215 52.5757 18.7252C56.597 16.147 58.7942 11.334 58.917 11.0576C59.0499 10.7585 59.0224 10.4126 58.8441 10.1382C58.6657 9.86388 58.3607 9.69838 58.0335 9.69842H54.1668V5.83175C54.167 5.4564 53.9498 5.11488 53.6099 4.95578C53.2699 4.79668 52.8686 4.84875 52.5805 5.08935L49.3528 7.78442C47.881 5.10025 45.6566 2.90483 42.9535 1.46822C42.3384 1.12871 41.6405 0.968309 40.9389 1.00518C34.4642 1.41022 31.3631 6.64278 30.0001 10.1818C28.6313 6.64665 25.5303 1.42762 19.0613 1.02355C18.3601 0.984053 17.6619 1.14285 17.0468 1.48175C14.3484 2.91586 12.1268 5.10584 10.6542 7.78345L7.41879 5.08838C7.13054 4.84829 6.72939 4.79665 6.38973 4.95592C6.05007 5.11519 5.83322 5.4566 5.83346 5.83175V9.69842H1.96679C1.63957 9.69838 1.33454 9.86388 1.1562 10.1382C0.977856 10.4126 0.950408 10.7585 1.08326 11.0576C1.20603 11.334 3.40326 16.147 7.42459 18.7252ZM23.2335 20.3318V28.0651H7.76679V21.2984C7.76679 20.7645 8.19958 20.3318 8.73346 20.3318H23.2335ZM25.0991 14.6439C22.8524 12.7087 21.2871 10.1027 20.6341 7.21022C23.6878 8.54808 25.2838 12.1915 25.8618 13.8135C25.5762 14.0597 25.3202 14.3384 25.0991 14.6439ZM26.1335 17.4318C26.1335 15.8301 27.4318 14.5318 29.0335 14.5318H30.9668C32.5684 14.5318 33.8668 15.8301 33.8668 17.4318V18.3984H26.1335V17.4318ZM34.8335 28.0651H25.1668V20.3318H34.8335V28.0651ZM34.1384 13.8135C34.7184 12.1915 36.3134 8.54808 39.3662 7.21022C38.7137 10.1029 37.1483 12.709 34.9011 14.6439C34.68 14.3384 34.424 14.0597 34.1384 13.8135ZM9.70013 56.0984V29.9984H25.1668V57.0651H10.6668C10.1329 57.0651 9.70013 56.6323 9.70013 56.0984ZM27.1001 57.0651V29.9984H32.9001V57.0651H27.1001ZM50.3001 56.0984C50.3001 56.6323 49.8673 57.0651 49.3335 57.0651H34.8335V29.9984H50.3001V56.0984ZM51.2668 20.3318C51.8007 20.3318 52.2335 20.7645 52.2335 21.2984V28.0651H36.7668V20.3318H51.2668ZM53.2001 11.6318H56.4327C55.089 13.945 51.9145 18.3984 47.4001 18.3984H45.2348C46.9031 17.036 48.3486 15.4216 49.5191 13.6134C50.2791 12.4468 50.4953 11.0078 50.1116 9.66942L52.2335 7.89848V10.6651C52.2335 11.199 52.6663 11.6318 53.2001 11.6318ZM41.0598 2.93175C41.4001 2.91682 41.7377 2.99788 42.0342 3.16568C43.459 3.93902 46.9139 6.14785 48.2131 10.0435C48.5007 10.8848 48.3856 11.8115 47.9009 12.5569C46.8201 14.2089 44.5697 17.1331 41.5325 18.3984H35.8001V17.4318C35.8 17.11 35.7676 16.7891 35.7035 16.4738C39.6668 13.6705 41.0414 8.79072 41.4551 6.74525C41.5562 6.25263 41.391 5.74313 41.0201 5.40352C40.646 5.05359 40.1155 4.92619 39.6233 5.06808C35.4193 6.25225 33.2926 10.5336 32.4284 12.8498C32.0306 12.7206 31.6175 12.6442 31.1998 12.6226C31.9141 9.94975 34.3443 3.35515 41.0598 2.93175ZM11.7872 10.0571C13.0835 6.16622 16.5403 3.95642 17.9651 3.18695C18.2625 3.02065 18.6 2.9397 18.9405 2.95302C25.6501 3.37255 28.0813 9.94782 28.8005 12.6197C28.3834 12.6414 27.971 12.7178 27.5738 12.8469C26.7096 10.5269 24.5829 6.24935 20.3789 5.06518C19.8867 4.92488 19.3569 5.05209 18.9821 5.40062C18.6122 5.74084 18.4482 6.25025 18.55 6.74235C18.9589 8.79072 20.3335 13.6734 24.2968 16.4738C24.2326 16.7891 24.2002 17.11 24.2001 17.4318V18.3984H18.4678C15.4305 17.135 13.1782 14.2137 12.0994 12.5627C11.6156 11.8199 11.5005 10.8958 11.7872 10.0571ZM6.80013 11.6318C7.334 11.6318 7.76679 11.199 7.76679 10.6651V7.89462L9.89346 9.66555C9.50515 11.0066 9.72007 12.4503 10.4822 13.6202C11.6516 15.426 13.0958 17.0381 14.7626 18.3984H12.6001C8.09836 18.3984 4.91899 13.946 3.57049 11.6318H6.80013Z"/>
</mask>
<path d="M7.42459 18.7252C6.4521 19.215 5.83715 20.2095 5.83346 21.2984V28.0651C5.83346 29.1328 6.69904 29.9984 7.76679 29.9984V56.0984C7.76679 57.7 9.06517 58.9984 10.6668 58.9984H49.3335C50.9351 58.9984 52.2335 57.7 52.2335 56.0984V29.9984C53.3012 29.9984 54.1668 29.1328 54.1668 28.0651V21.2984C54.1631 20.2095 53.5482 19.215 52.5757 18.7252C56.597 16.147 58.7942 11.334 58.917 11.0576C59.0499 10.7585 59.0224 10.4126 58.8441 10.1382C58.6657 9.86388 58.3607 9.69838 58.0335 9.69842H54.1668V5.83175C54.167 5.4564 53.9498 5.11488 53.6099 4.95578C53.2699 4.79668 52.8686 4.84875 52.5805 5.08935L49.3528 7.78442C47.881 5.10025 45.6566 2.90483 42.9535 1.46822C42.3384 1.12871 41.6405 0.968309 40.9389 1.00518C34.4642 1.41022 31.3631 6.64278 30.0001 10.1818C28.6313 6.64665 25.5303 1.42762 19.0613 1.02355C18.3601 0.984053 17.6619 1.14285 17.0468 1.48175C14.3484 2.91586 12.1268 5.10584 10.6542 7.78345L7.41879 5.08838C7.13054 4.84829 6.72939 4.79665 6.38973 4.95592C6.05007 5.11519 5.83322 5.4566 5.83346 5.83175V9.69842H1.96679C1.63957 9.69838 1.33454 9.86388 1.1562 10.1382C0.977856 10.4126 0.950408 10.7585 1.08326 11.0576C1.20603 11.334 3.40326 16.147 7.42459 18.7252ZM23.2335 20.3318V28.0651H7.76679V21.2984C7.76679 20.7645 8.19958 20.3318 8.73346 20.3318H23.2335ZM25.0991 14.6439C22.8524 12.7087 21.2871 10.1027 20.6341 7.21022C23.6878 8.54808 25.2838 12.1915 25.8618 13.8135C25.5762 14.0597 25.3202 14.3384 25.0991 14.6439ZM26.1335 17.4318C26.1335 15.8301 27.4318 14.5318 29.0335 14.5318H30.9668C32.5684 14.5318 33.8668 15.8301 33.8668 17.4318V18.3984H26.1335V17.4318ZM34.8335 28.0651H25.1668V20.3318H34.8335V28.0651ZM34.1384 13.8135C34.7184 12.1915 36.3134 8.54808 39.3662 7.21022C38.7137 10.1029 37.1483 12.709 34.9011 14.6439C34.68 14.3384 34.424 14.0597 34.1384 13.8135ZM9.70013 56.0984V29.9984H25.1668V57.0651H10.6668C10.1329 57.0651 9.70013 56.6323 9.70013 56.0984ZM27.1001 57.0651V29.9984H32.9001V57.0651H27.1001ZM50.3001 56.0984C50.3001 56.6323 49.8673 57.0651 49.3335 57.0651H34.8335V29.9984H50.3001V56.0984ZM51.2668 20.3318C51.8007 20.3318 52.2335 20.7645 52.2335 21.2984V28.0651H36.7668V20.3318H51.2668ZM53.2001 11.6318H56.4327C55.089 13.945 51.9145 18.3984 47.4001 18.3984H45.2348C46.9031 17.036 48.3486 15.4216 49.5191 13.6134C50.2791 12.4468 50.4953 11.0078 50.1116 9.66942L52.2335 7.89848V10.6651C52.2335 11.199 52.6663 11.6318 53.2001 11.6318ZM41.0598 2.93175C41.4001 2.91682 41.7377 2.99788 42.0342 3.16568C43.459 3.93902 46.9139 6.14785 48.2131 10.0435C48.5007 10.8848 48.3856 11.8115 47.9009 12.5569C46.8201 14.2089 44.5697 17.1331 41.5325 18.3984H35.8001V17.4318C35.8 17.11 35.7676 16.7891 35.7035 16.4738C39.6668 13.6705 41.0414 8.79072 41.4551 6.74525C41.5562 6.25263 41.391 5.74313 41.0201 5.40352C40.646 5.05359 40.1155 4.92619 39.6233 5.06808C35.4193 6.25225 33.2926 10.5336 32.4284 12.8498C32.0306 12.7206 31.6175 12.6442 31.1998 12.6226C31.9141 9.94975 34.3443 3.35515 41.0598 2.93175ZM11.7872 10.0571C13.0835 6.16622 16.5403 3.95642 17.9651 3.18695C18.2625 3.02065 18.6 2.9397 18.9405 2.95302C25.6501 3.37255 28.0813 9.94782 28.8005 12.6197C28.3834 12.6414 27.971 12.7178 27.5738 12.8469C26.7096 10.5269 24.5829 6.24935 20.3789 5.06518C19.8867 4.92488 19.3569 5.05209 18.9821 5.40062C18.6122 5.74084 18.4482 6.25025 18.55 6.74235C18.9589 8.79072 20.3335 13.6734 24.2968 16.4738C24.2326 16.7891 24.2002 17.11 24.2001 17.4318V18.3984H18.4678C15.4305 17.135 13.1782 14.2137 12.0994 12.5627C11.6156 11.8199 11.5005 10.8958 11.7872 10.0571ZM6.80013 11.6318C7.334 11.6318 7.76679 11.199 7.76679 10.6651V7.89462L9.89346 9.66555C9.50515 11.0066 9.72007 12.4503 10.4822 13.6202C11.6516 15.426 13.0958 17.0381 14.7626 18.3984H12.6001C8.09836 18.3984 4.91899 13.946 3.57049 11.6318H6.80013Z" fill="#7AC751"/>
<path d="M7.42459 18.7252C6.4521 19.215 5.83715 20.2095 5.83346 21.2984V28.0651C5.83346 29.1328 6.69904 29.9984 7.76679 29.9984V56.0984C7.76679 57.7 9.06517 58.9984 10.6668 58.9984H49.3335C50.9351 58.9984 52.2335 57.7 52.2335 56.0984V29.9984C53.3012 29.9984 54.1668 29.1328 54.1668 28.0651V21.2984C54.1631 20.2095 53.5482 19.215 52.5757 18.7252C56.597 16.147 58.7942 11.334 58.917 11.0576C59.0499 10.7585 59.0224 10.4126 58.8441 10.1382C58.6657 9.86388 58.3607 9.69838 58.0335 9.69842H54.1668V5.83175C54.167 5.4564 53.9498 5.11488 53.6099 4.95578C53.2699 4.79668 52.8686 4.84875 52.5805 5.08935L49.3528 7.78442C47.881 5.10025 45.6566 2.90483 42.9535 1.46822C42.3384 1.12871 41.6405 0.968309 40.9389 1.00518C34.4642 1.41022 31.3631 6.64278 30.0001 10.1818C28.6313 6.64665 25.5303 1.42762 19.0613 1.02355C18.3601 0.984053 17.6619 1.14285 17.0468 1.48175C14.3484 2.91586 12.1268 5.10584 10.6542 7.78345L7.41879 5.08838C7.13054 4.84829 6.72939 4.79665 6.38973 4.95592C6.05007 5.11519 5.83322 5.4566 5.83346 5.83175V9.69842H1.96679C1.63957 9.69838 1.33454 9.86388 1.1562 10.1382C0.977856 10.4126 0.950408 10.7585 1.08326 11.0576C1.20603 11.334 3.40326 16.147 7.42459 18.7252ZM23.2335 20.3318V28.0651H7.76679V21.2984C7.76679 20.7645 8.19958 20.3318 8.73346 20.3318H23.2335ZM25.0991 14.6439C22.8524 12.7087 21.2871 10.1027 20.6341 7.21022C23.6878 8.54808 25.2838 12.1915 25.8618 13.8135C25.5762 14.0597 25.3202 14.3384 25.0991 14.6439ZM26.1335 17.4318C26.1335 15.8301 27.4318 14.5318 29.0335 14.5318H30.9668C32.5684 14.5318 33.8668 15.8301 33.8668 17.4318V18.3984H26.1335V17.4318ZM34.8335 28.0651H25.1668V20.3318H34.8335V28.0651ZM34.1384 13.8135C34.7184 12.1915 36.3134 8.54808 39.3662 7.21022C38.7137 10.1029 37.1483 12.709 34.9011 14.6439C34.68 14.3384 34.424 14.0597 34.1384 13.8135ZM9.70013 56.0984V29.9984H25.1668V57.0651H10.6668C10.1329 57.0651 9.70013 56.6323 9.70013 56.0984ZM27.1001 57.0651V29.9984H32.9001V57.0651H27.1001ZM50.3001 56.0984C50.3001 56.6323 49.8673 57.0651 49.3335 57.0651H34.8335V29.9984H50.3001V56.0984ZM51.2668 20.3318C51.8007 20.3318 52.2335 20.7645 52.2335 21.2984V28.0651H36.7668V20.3318H51.2668ZM53.2001 11.6318H56.4327C55.089 13.945 51.9145 18.3984 47.4001 18.3984H45.2348C46.9031 17.036 48.3486 15.4216 49.5191 13.6134C50.2791 12.4468 50.4953 11.0078 50.1116 9.66942L52.2335 7.89848V10.6651C52.2335 11.199 52.6663 11.6318 53.2001 11.6318ZM41.0598 2.93175C41.4001 2.91682 41.7377 2.99788 42.0342 3.16568C43.459 3.93902 46.9139 6.14785 48.2131 10.0435C48.5007 10.8848 48.3856 11.8115 47.9009 12.5569C46.8201 14.2089 44.5697 17.1331 41.5325 18.3984H35.8001V17.4318C35.8 17.11 35.7676 16.7891 35.7035 16.4738C39.6668 13.6705 41.0414 8.79072 41.4551 6.74525C41.5562 6.25263 41.391 5.74313 41.0201 5.40352C40.646 5.05359 40.1155 4.92619 39.6233 5.06808C35.4193 6.25225 33.2926 10.5336 32.4284 12.8498C32.0306 12.7206 31.6175 12.6442 31.1998 12.6226C31.9141 9.94975 34.3443 3.35515 41.0598 2.93175ZM11.7872 10.0571C13.0835 6.16622 16.5403 3.95642 17.9651 3.18695C18.2625 3.02065 18.6 2.9397 18.9405 2.95302C25.6501 3.37255 28.0813 9.94782 28.8005 12.6197C28.3834 12.6414 27.971 12.7178 27.5738 12.8469C26.7096 10.5269 24.5829 6.24935 20.3789 5.06518C19.8867 4.92488 19.3569 5.05209 18.9821 5.40062C18.6122 5.74084 18.4482 6.25025 18.55 6.74235C18.9589 8.79072 20.3335 13.6734 24.2968 16.4738C24.2326 16.7891 24.2002 17.11 24.2001 17.4318V18.3984H18.4678C15.4305 17.135 13.1782 14.2137 12.0994 12.5627C11.6156 11.8199 11.5005 10.8958 11.7872 10.0571ZM6.80013 11.6318C7.334 11.6318 7.76679 11.199 7.76679 10.6651V7.89462L9.89346 9.66555C9.50515 11.0066 9.72007 12.4503 10.4822 13.6202C11.6516 15.426 13.0958 17.0381 14.7626 18.3984H12.6001C8.09836 18.3984 4.91899 13.946 3.57049 11.6318H6.80013Z" stroke="#7AC751" stroke-width="0.5" mask="url(#path-3-outside-1_1_565)"/>
<path d="M12.6001 31.8059C11.9971 31.8059 11.5084 32.2947 11.5084 32.8976V34.8309C11.5084 35.4338 11.9971 35.9226 12.6001 35.9226C13.203 35.9226 13.6917 35.4338 13.6917 34.8309V32.8976C13.6917 32.2947 13.203 31.8059 12.6001 31.8059Z" fill="#7AC751" stroke="#7AC751" stroke-width="0.25"/>
<path d="M12.6001 37.606C11.9971 37.606 11.5084 38.0947 11.5084 38.6976V54.1643C11.5084 54.7672 11.9971 55.256 12.6001 55.256C13.203 55.256 13.6917 54.7672 13.6917 54.1643V38.6976C13.6917 38.0947 13.203 37.606 12.6001 37.606Z" fill="#7AC751" stroke="#7AC751" stroke-width="0.25"/>
<path d="M47.4003 35.9226C48.0032 35.9226 48.492 35.4338 48.492 34.8309V32.8976C48.492 32.2947 48.0032 31.8059 47.4003 31.8059C46.7974 31.8059 46.3087 32.2947 46.3087 32.8976V34.8309C46.3087 35.4338 46.7974 35.9226 47.4003 35.9226Z" fill="#7AC751" stroke="#7AC751" stroke-width="0.25"/>
<path d="M47.4003 55.256C48.0032 55.256 48.492 54.7672 48.492 54.1643V38.6976C48.492 38.0947 48.0032 37.606 47.4003 37.606C46.7974 37.606 46.3087 38.0947 46.3087 38.6976V54.1643C46.3087 54.7672 46.7974 55.256 47.4003 55.256Z" fill="#7AC751" stroke="#7AC751" stroke-width="0.25"/>
</svg>
