<svg width="17" height="17" viewBox="0 0 17 17" fill="none" xmlns="http://www.w3.org/2000/svg">
<path d="M8.07435 6.06047C6.59618 6.06047 5.38988 7.26677 5.38988 8.74495C5.38988 10.2231 6.59618 11.4294 8.07435 11.4294C9.55253 11.4294 10.7588 10.2231 10.7588 8.74495C10.7588 7.26677 9.55253 6.06047 8.07435 6.06047ZM16.1258 8.74495C16.1258 7.6333 16.1358 6.53171 16.0734 5.42208C16.011 4.13321 15.717 2.98933 14.7745 2.04685C13.83 1.10234 12.6881 0.810335 11.3992 0.747906C10.2876 0.685476 9.186 0.695545 8.07637 0.695545C6.96472 0.695545 5.86313 0.685476 4.7535 0.747906C3.46463 0.810335 2.32075 1.10436 1.37827 2.04685C0.433766 2.99135 0.141756 4.13321 0.0793265 5.42208C0.0168969 6.53373 0.0269662 7.63531 0.0269662 8.74495C0.0269662 9.85458 0.0168969 10.9582 0.0793265 12.0678C0.141756 13.3567 0.43578 14.5006 1.37827 15.443C2.32277 16.3875 3.46463 16.6796 4.7535 16.742C5.86515 16.8044 6.96673 16.7943 8.07637 16.7943C9.18802 16.7943 10.2896 16.8044 11.3992 16.742C12.6881 16.6796 13.832 16.3855 14.7745 15.443C15.719 14.4985 16.011 13.3567 16.0734 12.0678C16.1379 10.9582 16.1258 9.8566 16.1258 8.74495ZM8.07435 12.8754C5.78862 12.8754 3.94393 11.0307 3.94393 8.74495C3.94393 6.45921 5.78862 4.61452 8.07435 4.61452C10.3601 4.61452 12.2048 6.45921 12.2048 8.74495C12.2048 11.0307 10.3601 12.8754 8.07435 12.8754ZM12.3739 5.40999C11.8403 5.40999 11.4093 4.97903 11.4093 4.44535C11.4093 3.91168 11.8403 3.48071 12.3739 3.48071C12.9076 3.48071 13.3386 3.91168 13.3386 4.44535C13.3387 4.57208 13.3139 4.69759 13.2655 4.81469C13.2171 4.9318 13.146 5.0382 13.0564 5.12781C12.9668 5.21742 12.8604 5.28847 12.7433 5.33689C12.6262 5.38531 12.5007 5.41015 12.3739 5.40999Z" fill="#555555"/>
</svg>
