<svg width="14" height="18" viewBox="0 0 14 18" fill="none" xmlns="http://www.w3.org/2000/svg">
<path d="M0.921141 6.92662C0.921141 6.19391 1.04922 5.5017 1.30162 4.85564C1.54277 4.22813 1.90104 3.6522 2.35736 3.15855C2.81274 2.67137 3.33386 2.25011 3.90565 1.90692C4.4923 1.55201 5.12742 1.28426 5.7911 1.11206C6.46279 0.935681 7.15443 0.846733 7.84889 0.847416C8.92158 0.847416 9.91987 1.07439 10.8456 1.52644C11.7593 1.97025 12.537 2.65135 13.0974 3.49853C13.6757 4.36026 13.9629 5.33501 13.9629 6.42182C13.9629 7.07353 13.8989 7.71112 13.768 8.33458C13.6394 8.95769 13.4351 9.56273 13.1596 10.1362C12.897 10.6913 12.5536 11.2045 12.1406 11.6591C11.7255 12.1064 11.2229 12.4635 10.6639 12.7082C10.057 12.9742 9.40049 13.1081 8.73793 13.1009C8.2774 13.1009 7.81781 12.9926 7.36387 12.7751C6.90993 12.5585 6.58408 12.2609 6.38819 11.8794C6.31944 12.1441 6.22526 12.5265 6.1 13.0265C5.97945 13.5257 5.89846 13.8478 5.86267 13.9937C5.825 14.1388 5.75531 14.3808 5.6536 14.7161C5.58462 14.9641 5.49613 15.2063 5.38895 15.4403L5.06498 16.0751C4.92488 16.3475 4.76825 16.611 4.59597 16.8643C4.42551 17.111 4.21455 17.4058 3.9631 17.7449L3.82277 17.7948L3.72954 17.6931C3.62876 16.626 3.57697 15.9875 3.57697 15.7765C3.57697 15.1521 3.65137 14.4515 3.79829 13.6735C3.94238 12.8966 4.17029 11.9199 4.47637 10.7455C4.78245 9.57208 4.95762 8.88176 5.00471 8.67739C4.78904 8.23758 4.67979 7.66309 4.67979 6.95675C4.67979 6.39263 4.85591 5.86429 5.20907 5.36703C5.56318 4.87165 6.01053 4.62396 6.553 4.62396C6.96832 4.62396 7.29041 4.76146 7.52115 5.0374C7.75283 5.3124 7.86584 5.65898 7.86584 6.08184C7.86584 6.53013 7.71704 7.17902 7.41755 8.02756C7.11807 8.87705 6.96926 9.51087 6.96926 9.93184C6.96926 10.3585 7.12183 10.7154 7.42697 10.9951C7.7281 11.275 8.12633 11.4266 8.53733 11.418C8.91028 11.418 9.25591 11.3332 9.57706 11.1628C9.89319 10.9973 10.1668 10.761 10.3766 10.4724C10.8336 9.84548 11.1594 9.13277 11.3344 8.37696C11.4248 7.97953 11.4945 7.60187 11.5378 7.24682C11.584 6.88989 11.6038 6.55273 11.6038 6.23252C11.6038 5.05812 11.2308 4.14271 10.4896 3.48723C9.7447 2.83175 8.77466 2.50589 7.58142 2.50589C6.22432 2.50589 5.08947 2.94476 4.18065 3.82533C3.27089 4.70307 2.81318 5.81908 2.81318 7.17242C2.81318 7.47097 2.85839 7.75915 2.94409 8.03792C3.02791 8.31575 3.11926 8.53706 3.21815 8.70093C3.31609 8.86198 3.40839 9.01926 3.49221 9.16429C3.57697 9.30933 3.62123 9.41292 3.62123 9.47508C3.62123 9.66532 3.57132 9.91301 3.47055 10.2191C3.36601 10.5252 3.24263 10.6777 3.09383 10.6777C3.07971 10.6777 3.02131 10.6674 2.9196 10.6457C2.56734 10.5405 2.24922 10.344 1.9976 10.0759C1.73054 9.79816 1.51979 9.47131 1.37696 9.11343C1.23455 8.75683 1.12362 8.38844 1.04546 8.01249C0.961009 7.65676 0.919276 7.29223 0.921141 6.92662Z" fill="#555555"/>
</svg>
