<svg width="18" height="15" viewBox="0 0 18 15" fill="none" xmlns="http://www.w3.org/2000/svg">
<path d="M17.7737 2.17784C17.1505 2.44668 16.4723 2.64017 15.7737 2.71552C16.499 2.28463 17.0421 1.60389 17.3012 0.801028C16.6206 1.2059 15.875 1.48981 15.0975 1.64015C14.7725 1.29274 14.3795 1.01598 13.9429 0.827112C13.5063 0.638245 13.0355 0.541316 12.5598 0.542367C10.6351 0.542367 9.0872 2.10248 9.0872 4.01697C9.0872 4.28582 9.11979 4.55466 9.17275 4.81332C6.29082 4.66261 3.7205 3.2858 2.01171 1.17782C1.70035 1.70963 1.53719 2.31516 1.5392 2.93141C1.5392 4.13714 2.15225 5.2003 3.08709 5.82556C2.53617 5.80387 1.99815 5.65244 1.5168 5.3836V5.42637C1.5168 7.11479 2.7103 8.51401 4.30096 8.8358C4.0023 8.91338 3.69506 8.95307 3.38649 8.95393C3.16041 8.95393 2.94656 8.93153 2.73067 8.90098C3.17059 10.2778 4.45168 11.2778 5.97717 11.3104C4.78366 12.2452 3.28872 12.7951 1.66547 12.7951C1.37423 12.7951 1.10538 12.785 0.826355 12.7524C2.3661 13.7402 4.19302 14.3104 6.16047 14.3104C12.5476 14.3104 16.0425 9.01911 16.0425 4.42635C16.0425 4.27564 16.0425 4.12492 16.0323 3.9742C16.7085 3.47929 17.3012 2.86624 17.7737 2.17784Z" fill="#555555"/>
</svg>
